<svg id="Layer_1" data-name="Layer 1" xmlns="http://www.w3.org/2000/svg" viewBox="0 0 223.47 239.09"><defs><style>.cls-1{fill:#eef2ff;}</style></defs><ellipse class="cls-1" cx="109.25" cy="10.44" rx="5.36" ry="5.37"/><ellipse class="cls-1" cx="121.11" cy="20.04" rx="6.5" ry="6.51"/><ellipse class="cls-1" cx="108.76" cy="35.67" rx="9.1" ry="9.12"/><path class="cls-1" d="M131,141a39.65,39.65,0,0,0,9.27-1l1.13-.32.65,1L147,148a8.28,8.28,0,0,1,.16,8.46,6.3,6.3,0,0,1-5.52,3.42H81.94a6.51,6.51,0,0,1-5.53-3.42,8.72,8.72,0,0,1,0-8.46l8.94-12.86c3.09-4.23,6.5-6.19,10.4-6.19,4.56,0,8.94,2.77,13.17,5.54,2.76,1.79,5.37,3.42,7.64,4.07h.33C119.65,140.18,125.5,141,131,141Zm-3.58-78.46V60.9H132a5,5,0,0,0,4.71-4.72V53.9A4.72,4.72,0,0,0,132,49.18H91.53a4.73,4.73,0,0,0-4.72,4.72v2.44a4.72,4.72,0,0,0,4.72,4.72h4.55v42.16l-.33.49L58.53,157.43A6.81,6.81,0,0,0,64.05,168h95.43a6.86,6.86,0,0,0,6-3.74,6.5,6.5,0,0,0-.48-6.84l-37.23-53.72-.33-.49V62.53Z"/><path class="cls-1" d="M52.19,155.48l23.08-33.21L46,151.08a8.39,8.39,0,0,0,4.39,14.16l1,.17A10.3,10.3,0,0,1,52.19,155.48Z"/><path class="cls-1" d="M135.26,64.64h-1v37.44l.33.65L140.3,72l2.92.49a6.28,6.28,0,0,0,7.32-5l.49-2.28a6.28,6.28,0,0,0-5-7.32l-2.61-.49A8.37,8.37,0,0,1,135.26,64.64Z"/><path class="cls-1" d="M72.67,67.41a6.45,6.45,0,0,0,7.32,5L82.91,72l5.69,30.6.33-.49V64.81h-.82a8.44,8.44,0,0,1-8.29-7.49l-2.76.49a6.28,6.28,0,0,0-5,7.32Z"/><path class="cls-1" d="M177.52,151.08l-29.26-29,23.09,33.37a9.93,9.93,0,0,1,1,9.93l1-.17C179.8,163.94,182.07,155.8,177.52,151.08Z"/><path class="cls-1" d="M92.18,173.38l59.33,11.07a8.3,8.3,0,0,0,9.27-11.07Z"/><path class="cls-1" d="M75.27,173.38H62.59a8.29,8.29,0,0,0,9.27,11.07l31.21-5.86Z"/><polygon class="cls-1" points="12.76 212.93 12.76 233.2 9.2 233.2 9.2 212.93 3.77 212.93 3.77 209.58 18.17 209.58 18.17 212.93 12.76 212.93"/><polygon class="cls-1" points="36.42 212.93 26.95 212.93 26.95 218.61 36.14 218.61 36.14 221.96 26.95 221.96 26.95 229.85 36.42 229.85 36.42 233.2 23.39 233.2 23.39 209.58 36.42 209.58 36.42 212.93"/><path class="cls-1" d="M56.22,213.1l-2.89,1.71A5,5,0,0,0,51.79,213a3.57,3.57,0,0,0-2-.49,3.66,3.66,0,0,0-2.47.84,2.61,2.61,0,0,0-1,2.08c0,1.15.86,2.08,2.57,2.78l2.36,1A10,10,0,0,1,55.51,222a6.41,6.41,0,0,1,1.33,4.1,7.2,7.2,0,0,1-2.18,5.38,7.43,7.43,0,0,1-5.43,2.15,7.25,7.25,0,0,1-5.07-1.82,8.42,8.42,0,0,1-2.47-5.13l3.61-.79a6.19,6.19,0,0,0,.86,2.87,3.7,3.7,0,0,0,3.21,1.53,3.74,3.74,0,0,0,2.77-1.11,3.89,3.89,0,0,0,1.1-2.83,3.62,3.62,0,0,0-.2-1.26,2.88,2.88,0,0,0-.59-1.05,4.68,4.68,0,0,0-1-.91,10.78,10.78,0,0,0-1.53-.81l-2.28-.95c-3.24-1.36-4.85-3.36-4.85-6a5.7,5.7,0,0,1,2-4.45,7.39,7.39,0,0,1,5.07-1.81Q53.93,209.12,56.22,213.1Z"/><polygon class="cls-1" points="68.8 212.93 68.8 233.2 65.23 233.2 65.23 212.93 59.8 212.93 59.8 209.58 74.21 209.58 74.21 212.93 68.8 212.93"/><path class="cls-1" d="M89.59,220.82h9.75v.78a16.46,16.46,0,0,1-.62,4.72,10,10,0,0,1-2.07,3.54,10.68,10.68,0,0,1-8.36,3.7A11.5,11.5,0,0,1,79.8,230a12.33,12.33,0,0,1,14-19.81,14.88,14.88,0,0,1,4.51,3.67l-2.54,2.43a8.62,8.62,0,0,0-7.08-3.87A8.44,8.44,0,0,0,82.38,215a8.63,8.63,0,0,0-2.54,6.36,8.87,8.87,0,0,0,8.57,8.87,7.11,7.11,0,0,0,4.72-1.77,6.3,6.3,0,0,0,2.34-4.29H89.59Z"/><path class="cls-1" d="M112.56,223.06a6.44,6.44,0,0,0,3.79-2.31,6.72,6.72,0,0,0,1.44-4.32,6.5,6.5,0,0,0-2.29-5.17c-1.39-1.17-3.64-1.75-6.77-1.75h-4.17v23.61h3.56v-9.67h.65l6.74,9.67h4.36Zm-4.44-2.71v-7.49h1.27c3.29,0,4.93,1.2,4.93,3.62q0,3.87-5.06,3.87Z"/><path class="cls-1" d="M143.94,212.67a11.82,11.82,0,0,0-8.65-3.61,12,12,0,0,0-8.75,3.58,12.18,12.18,0,0,0,.35,17.74,12.48,12.48,0,0,0,17-.39,11.66,11.66,0,0,0,3.64-8.65A11.8,11.8,0,0,0,143.94,212.67Zm-2.52,15A8.87,8.87,0,0,1,129,215a8.8,8.8,0,0,1,12.43,0,9.18,9.18,0,0,1,0,12.67Z"/><path class="cls-1" d="M156.3,209.51v14.22a7.85,7.85,0,0,0,1,4.45,5.31,5.31,0,0,0,8.37,0,7.72,7.72,0,0,0,1-4.45V209.51h3.56v15.2a8.5,8.5,0,0,1-2.32,6.15,9,9,0,0,1-12.83,0,8.51,8.51,0,0,1-2.33-6.15v-15.2Z"/><path class="cls-1" d="M216.05,212.63a10.63,10.63,0,0,0-4-2.34,17.92,17.92,0,0,0-5.62-.71h-5V233.2h4.89a18.24,18.24,0,0,0,5.56-.66,11.5,11.5,0,0,0,7.81-11.15A11.31,11.31,0,0,0,216.05,212.63Zm-2.57,15a8.11,8.11,0,0,1-2.88,1.69,13.26,13.26,0,0,1-4,.51H205V212.93h1.61q4.56,0,6.9,2.16a8.21,8.21,0,0,1,2.6,6.3A8.1,8.1,0,0,1,213.48,227.65Z"/><polygon class="cls-1" points="179 216.66 194.89 233.24 196.22 233.24 196.22 209.58 192.66 209.58 192.66 225.99 176.97 209.58 175.44 209.58 175.44 233.2 179 233.2 179 216.66"/></svg>