<svg id="Layer_1" data-name="Layer 1" xmlns="http://www.w3.org/2000/svg" viewBox="0 0 132.24 171.2"><defs><style>.cls-1{fill:#060718;}</style></defs><path class="cls-1" d="M74.34,26.68a5.62,5.62,0,1,0-5.7-5.62A5.66,5.66,0,0,0,74.34,26.68Z"/><path class="cls-1" d="M63.94,17.41a4.64,4.64,0,1,0-4.7-4.64A4.67,4.67,0,0,0,63.94,17.41Z"/><path class="cls-1" d="M74.34,26.68a5.62,5.62,0,1,0-5.7-5.62A5.66,5.66,0,0,0,74.34,26.68Z"/><ellipse class="cls-1" cx="63.52" cy="34.55" rx="7.97" ry="7.87"/><path class="cls-1" d="M83,125.44a35.16,35.16,0,0,0,8.11-.84l1-.29.57.85L97,131.48a7,7,0,0,1,.14,7.3,5.52,5.52,0,0,1-4.84,2.95H40a5.69,5.69,0,0,1-4.84-2.95,7.37,7.37,0,0,1,0-7.3L43,120.38c2.7-3.65,5.69-5.34,9.11-5.34,4,0,7.83,2.39,11.54,4.78a28.41,28.41,0,0,0,6.69,3.51h.29C73.06,124.74,78.18,125.44,83,125.44ZM79.89,57.73V56.32h4A4.3,4.3,0,0,0,88,52.25v-2a4.1,4.1,0,0,0-4.13-4.07H48.42a4.1,4.1,0,0,0-4.13,4.07v2.11a4.11,4.11,0,0,0,4.13,4.07h4V92.85l-.29.42L19.51,139.63a5.48,5.48,0,0,0-.28,6,5.68,5.68,0,0,0,5.12,3.09H108a6,6,0,0,0,5.27-3.23,5.55,5.55,0,0,0-.43-5.9L80.18,93.27l-.29-.42V57.73Z"/><path class="cls-1" d="M14,137.94l20.22-28.66L8.54,134.15a7.21,7.21,0,0,0,3.85,12.22l.85.14A8.77,8.77,0,0,1,14,137.94Z"/><path class="cls-1" d="M86.73,59.55h-.86V91.86l.29.56,5-26.55,2.57.42a5.47,5.47,0,0,0,6.4-4.35l.43-2a5.42,5.42,0,0,0-4.41-6.32l-2.28-.42A7.31,7.31,0,0,1,86.73,59.55Z"/><path class="cls-1" d="M31.9,61.94a5.63,5.63,0,0,0,6.41,4.35l2.56-.42,5,26.41.28-.42V59.69h-.71a7.34,7.34,0,0,1-7.26-6.46l-2.42.42A5.42,5.42,0,0,0,31.33,60Z"/><path class="cls-1" d="M123.75,134.15l-25.63-25,20.22,28.8a8.46,8.46,0,0,1,.86,8.57l.85-.14A7.26,7.26,0,0,0,123.75,134.15Z"/><path class="cls-1" d="M49,153.39,101,163a7.2,7.2,0,0,0,8.12-9.56Z"/><path class="cls-1" d="M34.18,153.39H23.07A7.2,7.2,0,0,0,31.19,163l27.34-5.06Z"/></svg>