<svg id="Layer_1" data-name="Layer 1" xmlns="http://www.w3.org/2000/svg" viewBox="0 0 132.24 171.2"><defs><style>.cls-1{fill:#38aeb7;}.cls-2{fill:#266aff;}.cls-3{fill:none;}.cls-4{fill:#eef2ff;}.cls-5{fill:#0848b7;}</style></defs><path class="cls-1" d="M106.35,154.79l-22.8-50.93a9.3,9.3,0,0,1-.66-5.53L88.48,68.5a2.7,2.7,0,0,1,3.14-2.15h0a5.8,5.8,0,0,0,6.62-4.53l.39-2.08a5.68,5.68,0,0,0-4.53-6.62L58.39,46.43A5.68,5.68,0,0,0,51.77,51l-.41,2.17a5.67,5.67,0,0,0,4.53,6.62h0a2.59,2.59,0,0,1,2.07,3L52.37,92.61a9.35,9.35,0,0,1-2.61,4.92l-39.7,39.22A7.5,7.5,0,0,0,14,149.41l84.19,15.78A7.52,7.52,0,0,0,106.35,154.79Zm-22.11-2.57-52.63-9.87c-3.59-.67-4.79-5.79-2.15-8.91l10-9.87c10.91-10.18,17.78,4.8,25.2,8.54,3,2,9.15,4.14,15.16,5,3.85.54,7.46,2.71,9,6.27l.57,1.32C90.81,148.46,87.83,152.89,84.24,152.22Z"/><path class="cls-2" d="M25.89,154.79,48.7,103.86a9.38,9.38,0,0,0,.65-5.53L43.76,68.5a2.69,2.69,0,0,0-3.14-2.15h0A5.8,5.8,0,0,1,34,61.82l-.39-2.08a5.69,5.69,0,0,1,4.53-6.62l35.72-6.69A5.69,5.69,0,0,1,80.48,51l.4,2.17a5.67,5.67,0,0,1-4.53,6.62h0a2.61,2.61,0,0,0-2.07,3l5.59,29.83a9.35,9.35,0,0,0,2.61,4.92l39.7,39.22a7.49,7.49,0,0,1-3.89,12.66L34.1,165.19A7.52,7.52,0,0,1,25.89,154.79ZM48,152.22l52.64-9.87c3.59-.67,4.78-5.79,2.14-8.91l-10-9.87c-10.9-10.18-17.78,4.8-25.2,8.54-3,2-9.15,4.14-15.16,5-3.84.54-7.46,2.71-9,6.27l-.57,1.32C41.43,148.46,44.41,152.89,48,152.22Z"/><rect class="cls-3" x="15.26" y="44.35" width="100.56" height="109.31" rx="9.32"/><path class="cls-4" d="M114.57,142,81.12,93.76V57.81h2.69a5.82,5.82,0,0,0,5.67-5.67V50a5.68,5.68,0,0,0-5.67-5.67H47.47A5.67,5.67,0,0,0,41.8,50v2.21a5.68,5.68,0,0,0,5.67,5.67h2.59V93.76L16.61,142a7.49,7.49,0,0,0,6.15,11.73h85.66A7.51,7.51,0,0,0,114.57,142Zm-22.21,1.54H38.82c-3.66,0-5.77-4.8-3.75-8.36l8-11.54c8.85-12,18.37,1.44,26.35,3.75,4.52,2,15,3,22.2,1.25L96,135.2C98.13,138.66,96,143.56,92.36,143.56Z"/><circle class="cls-2" cx="73.9" cy="19.35" r="5.77"/><circle class="cls-1" cx="62.85" cy="33.29" r="8.17"/><circle class="cls-4" cx="62.37" cy="9.74" r="3.85"/><polygon class="cls-5" points="37.12 153.75 66.13 159.19 95.63 153.66 37.12 153.75"/><path class="cls-5" d="M64.63,132.11a14.31,14.31,0,0,0,1.49.89,13.33,13.33,0,0,0,1.49-.89,22.35,22.35,0,0,0,4.85-3.69,18.72,18.72,0,0,1-3.07-1c-4.71-1.36-10-6.62-15.3-8.22a8.57,8.57,0,0,0-7.46.92C53.64,120,59,129.27,64.63,132.11Z"/></svg>