<svg id="Layer_1" data-name="Layer 1" xmlns="http://www.w3.org/2000/svg" xmlns:xlink="http://www.w3.org/1999/xlink" viewBox="0 0 223.47 239.09"><defs><style>.cls-1{fill:none;}.cls-2{fill:#060718;}.cls-3{fill:#38aeb7;}.cls-4{fill:#266aff;}.cls-5{clip-path:url(#clip-path);}.cls-6{fill:#0a0c3f;}.cls-7{fill:#0848b7;}</style><clipPath id="clip-path"><rect class="cls-1" x="54.34" y="48.28" width="113.47" height="123.34" rx="10.52"/></clipPath></defs><polygon class="cls-2" points="12.96 212.95 12.96 233.17 9.4 233.17 9.4 212.95 3.98 212.95 3.98 209.61 18.36 209.61 18.36 212.95 12.96 212.95"/><polygon class="cls-2" points="36.57 212.95 27.12 212.95 27.12 218.61 36.3 218.61 36.3 221.96 27.12 221.96 27.12 229.83 36.57 229.83 36.57 233.17 23.57 233.17 23.57 209.61 36.57 209.61 36.57 212.95"/><path class="cls-2" d="M56.34,213.12l-2.89,1.71A5,5,0,0,0,51.91,213a4.13,4.13,0,0,0-4.43.36,2.59,2.59,0,0,0-1,2.07c0,1.15.85,2.08,2.56,2.78l2.35,1a10,10,0,0,1,4.2,2.84A6.38,6.38,0,0,1,57,226.09a7.2,7.2,0,0,1-2.17,5.37,7.43,7.43,0,0,1-5.42,2.14,7.22,7.22,0,0,1-5.07-1.82,8.32,8.32,0,0,1-2.45-5.11l3.6-.79a6.21,6.21,0,0,0,.85,2.87,4.07,4.07,0,0,0,6,.41,4.14,4.14,0,0,0,.9-4.08,3,3,0,0,0-.59-1.05,4.69,4.69,0,0,0-1-.9,9.84,9.84,0,0,0-1.53-.81l-2.27-.95q-4.84-2-4.84-6a5.68,5.68,0,0,1,2-4.44,7.33,7.33,0,0,1,5-1.8A7.06,7.06,0,0,1,56.34,213.12Z"/><polygon class="cls-2" points="68.89 212.95 68.89 233.17 65.33 233.17 65.33 212.95 59.91 212.95 59.91 209.61 74.29 209.61 74.29 212.95 68.89 212.95"/><path class="cls-2" d="M89.63,220.82h9.74v.78a16.08,16.08,0,0,1-.63,4.71,9.86,9.86,0,0,1-2.06,3.54,10.67,10.67,0,0,1-8.35,3.69A11.49,11.49,0,0,1,79.86,230a12.3,12.3,0,0,1,14-19.77,15,15,0,0,1,4.51,3.66l-2.54,2.43a8.6,8.6,0,0,0-7.06-3.86A8.45,8.45,0,0,0,82.44,215a8.62,8.62,0,0,0-2.53,6.35,8.84,8.84,0,0,0,8.55,8.85,7.08,7.08,0,0,0,4.71-1.77,6.3,6.3,0,0,0,2.34-4.27H89.63Z"/><path class="cls-2" d="M112.56,223.05a6.35,6.35,0,0,0,3.78-2.3,6.69,6.69,0,0,0,1.44-4.31,6.46,6.46,0,0,0-2.29-5.15c-1.39-1.17-3.63-1.76-6.75-1.76h-4.17V233.1h3.56v-9.65h.64l6.73,9.65h4.35Zm-4.43-2.7v-7.48h1.27q4.91,0,4.91,3.62,0,3.85-5,3.86Z"/><path class="cls-2" d="M143.88,212.69a11.78,11.78,0,0,0-8.64-3.6,12,12,0,0,0-8.73,3.57,12.16,12.16,0,0,0,.35,17.7,12.46,12.46,0,0,0,17-.39,11.61,11.61,0,0,0,3.64-8.63A11.79,11.79,0,0,0,143.88,212.69Zm-2.52,14.94A8.85,8.85,0,0,1,129,215a8.39,8.39,0,0,1,6.21-2.56,8.31,8.31,0,0,1,6.2,2.56,9.15,9.15,0,0,1,0,12.64Z"/><path class="cls-2" d="M156.21,209.53v14.2a7.83,7.83,0,0,0,1,4.44,4.85,4.85,0,0,0,4.16,2,4.9,4.9,0,0,0,4.19-2,7.71,7.71,0,0,0,1-4.44v-14.2h3.56V224.7a8.73,8.73,0,1,1-17.45,0V209.53Z"/><path class="cls-2" d="M215.84,212.64a10.5,10.5,0,0,0-4-2.33,17.92,17.92,0,0,0-5.62-.7h-4.94v23.56h4.88a18.47,18.47,0,0,0,5.54-.65,11.48,11.48,0,0,0,7.8-11.13A11.29,11.29,0,0,0,215.84,212.64Zm-2.57,15a8,8,0,0,1-2.87,1.7,13.55,13.55,0,0,1-4,.5h-1.6V213h1.6c3,0,5.33.72,6.88,2.15a8.21,8.21,0,0,1,2.6,6.29A8.05,8.05,0,0,1,213.27,227.63Z"/><polygon class="cls-2" points="178.87 216.67 194.72 233.22 196.05 233.22 196.05 209.61 192.5 209.61 192.5 225.99 176.84 209.61 175.31 209.61 175.31 233.17 178.87 233.17 178.87 216.67"/><path class="cls-3" d="M157.13,172.9,131.4,115.43a10.45,10.45,0,0,1-.74-6.24L137,75.53a3,3,0,0,1,3.54-2.42h0A6.56,6.56,0,0,0,148,68l.44-2.35a6.41,6.41,0,0,0-5.11-7.47L103,50.63a6.4,6.4,0,0,0-7.46,5.11l-.46,2.45a6.41,6.41,0,0,0,5.11,7.47h0a2.94,2.94,0,0,1,2.34,3.42l-6.31,33.66a10.5,10.5,0,0,1-3,5.54L48.48,152.54a8.46,8.46,0,0,0,4.38,14.29l95,17.8A8.48,8.48,0,0,0,157.13,172.9ZM132.18,170,72.79,158.86c-4.05-.75-5.4-6.53-2.42-10.05l11.25-11.14c12.3-11.49,20.06,5.42,28.43,9.64,3.35,2.31,10.33,4.67,17.11,5.61,4.34.6,8.42,3.05,10.16,7.07l.65,1.49C139.59,165.76,136.23,170.75,132.18,170Z"/><path class="cls-4" d="M66.34,172.9l25.73-57.47a10.53,10.53,0,0,0,.74-6.24L86.5,75.53A3,3,0,0,0,83,73.11h0A6.55,6.55,0,0,1,75.49,68l-.44-2.35a6.41,6.41,0,0,1,5.11-7.47l40.3-7.55a6.41,6.41,0,0,1,7.47,5.11l.46,2.45a6.41,6.41,0,0,1-5.11,7.47h0a2.93,2.93,0,0,0-2.34,3.42l6.31,33.66a10.49,10.49,0,0,0,2.94,5.54L175,152.54a8.46,8.46,0,0,1-4.39,14.29l-95,17.8A8.47,8.47,0,0,1,66.34,172.9Zm25-2.91,59.39-11.13c4-.75,5.4-6.53,2.42-10.05l-11.25-11.14c-12.3-11.49-20.06,5.42-28.43,9.64-3.35,2.31-10.33,4.67-17.11,5.61-4.34.6-8.42,3.05-10.16,7.07l-.65,1.49C83.87,165.76,87.24,170.75,91.29,170Z"/><g class="cls-5"><path class="cls-6" d="M166.4,158.49,128.65,104V63.47h3a6.56,6.56,0,0,0,6.4-6.4V54.68a6.41,6.41,0,0,0-6.4-6.4h-41a6.42,6.42,0,0,0-6.41,6.4v2.49a6.42,6.42,0,0,0,6.41,6.41h2.92V104L55.86,158.49a8.47,8.47,0,0,0,7,13.24h96.65A8.48,8.48,0,0,0,166.4,158.49Zm-25.05,1.74H80.92c-4.12,0-6.51-5.42-4.23-9.44l9-13c10-13.57,20.72,1.62,29.73,4.23,5.1,2.27,16.92,3.36,25.06,1.41l5,7.37C147.85,154.7,145.47,160.23,141.35,160.23Z"/></g><circle class="cls-4" cx="120.52" cy="20.07" r="6.51"/><circle class="cls-3" cx="108.04" cy="35.8" r="9.22"/><circle class="cls-6" cx="107.5" cy="9.23" r="4.34"/><polygon class="cls-7" points="79.01 171.73 111.74 177.86 145.03 171.62 79.01 171.73"/><path class="cls-7" d="M110.05,147.31a18,18,0,0,0,1.69,1,19.1,19.1,0,0,0,1.68-1,25.15,25.15,0,0,0,5.47-4.17,21.39,21.39,0,0,1-3.47-1.14c-5.31-1.54-11.24-7.47-17.26-9.27a9.64,9.64,0,0,0-8.41,1C97.65,133.61,103.7,144.11,110.05,147.31Z"/></svg>