<svg id="Layer_1" data-name="Layer 1" xmlns="http://www.w3.org/2000/svg" xmlns:xlink="http://www.w3.org/1999/xlink" viewBox="0 0 223.47 239.09"><defs><style>.cls-1{fill:none;}.cls-2{fill:#eef2ff;}.cls-3{fill:#38aeb7;}.cls-4{fill:#266aff;}.cls-5{clip-path:url(#clip-path);}.cls-6{fill:#0a0c3f;}.cls-7{fill:#0848b7;}</style><clipPath id="clip-path"><rect class="cls-1" x="64.9" y="81.56" width="92.59" height="100.65" rx="8.58"/></clipPath></defs><path class="cls-2" d="M207,181.61a13.91,13.91,0,0,0,6.86-12.11l-.77-101.56a13.92,13.92,0,0,0-7.05-12l-88.17-50A13.94,13.94,0,0,0,104,6L16.45,57.37A14,14,0,0,0,9.57,69.49L10.34,171a14,14,0,0,0,7.06,12l88.27,50.15a14,14,0,0,0,14-.11Z"/><path class="cls-3" d="M148.78,183.26l-21-46.91a8.52,8.52,0,0,1-.6-5.08l5.14-27.47a2.49,2.49,0,0,1,2.9-2h0a5.35,5.35,0,0,0,6.09-4.17l.36-1.91a5.24,5.24,0,0,0-4.17-6.1l-32.89-6.16a5.22,5.22,0,0,0-6.09,4.17l-.38,2a5.24,5.24,0,0,0,4.17,6.1h0a2.38,2.38,0,0,1,1.91,2.78L99.07,126a8.6,8.6,0,0,1-2.4,4.53L60.11,166.64a6.91,6.91,0,0,0,3.58,11.66l77.53,14.53A6.92,6.92,0,0,0,148.78,183.26Zm-20.36-2.38L80,171.8c-3.3-.62-4.4-5.33-2-8.2l9.18-9.09c10-9.38,16.37,4.42,23.2,7.86,2.73,1.89,8.43,3.81,14,4.58a10.37,10.37,0,0,1,8.29,5.77l.53,1.21C134.47,177.42,131.72,181.5,128.42,180.88Z"/><path class="cls-4" d="M74.69,183.26l21-46.91a8.6,8.6,0,0,0,.6-5.08L91.14,103.8a2.48,2.48,0,0,0-2.89-2h0a5.34,5.34,0,0,1-6.09-4.17l-.36-1.91A5.23,5.23,0,0,1,86,89.64l32.89-6.16A5.22,5.22,0,0,1,125,87.65l.38,2a5.24,5.24,0,0,1-4.17,6.1h0a2.38,2.38,0,0,0-1.91,2.78L124.39,126a8.62,8.62,0,0,0,2.41,4.53l36.55,36.11a6.9,6.9,0,0,1-3.58,11.66L82.25,192.83A6.92,6.92,0,0,1,74.69,183.26Zm20.36-2.38,48.46-9.08c3.31-.62,4.41-5.33,2-8.2l-9.18-9.09c-10-9.38-16.37,4.42-23.2,7.86-2.74,1.89-8.43,3.81-14,4.58a10.4,10.4,0,0,0-8.3,5.77l-.52,1.21C89,177.42,91.75,181.5,95.05,180.88Z"/><g class="cls-5"><path class="cls-6" d="M156.35,171.5l-30.81-44.44V94H128a5.35,5.35,0,0,0,5.22-5.22v-2A5.23,5.23,0,0,0,128,81.56H94.56a5.24,5.24,0,0,0-5.23,5.22v2A5.23,5.23,0,0,0,94.56,94H97v33L66.14,171.5a6.9,6.9,0,0,0,5.67,10.8h78.87A6.92,6.92,0,0,0,156.35,171.5Zm-20.45,1.42H86.59c-3.36,0-5.31-4.43-3.45-7.71l7.35-10.62c8.14-11.06,16.9,1.33,24.25,3.45,4.16,1.86,13.81,2.75,20.45,1.16l4.07,6C141.21,168.4,139.26,172.92,135.9,172.92Z"/></g><circle class="cls-4" cx="118.9" cy="58.54" r="5.31"/><circle class="cls-3" cx="108.72" cy="71.38" r="7.52"/><circle class="cls-6" cx="108.28" cy="49.69" r="3.54"/><polygon class="cls-7" points="85.03 182.3 111.74 187.3 138.91 182.21 85.03 182.3"/><path class="cls-7" d="M110.36,162.37a12.28,12.28,0,0,0,1.38.82,13,13,0,0,0,1.37-.82,20.09,20.09,0,0,0,4.46-3.4,18.06,18.06,0,0,1-2.83-.93c-4.33-1.25-9.17-6.1-14.08-7.57a7.87,7.87,0,0,0-6.87.85C100.24,151.19,105.18,159.76,110.36,162.37Z"/></svg>